<svg width="287" height="18" viewBox="0 0 287 18" fill="none" xmlns="http://www.w3.org/2000/svg">
<path fill-rule="evenodd" clip-rule="evenodd" d="M141.108 13.9355C142.304 15.6774 143.5 18 143.5 18V1.29895e-05L127.356 0C132.04 1.07014 137.485 8.79682 140.416 12.9566L140.416 12.9567L140.418 12.9585C140.667 13.3121 140.898 13.6398 141.108 13.9355ZM145.892 13.9355C144.696 15.6774 143.5 18 143.5 18V1.29895e-05L159.644 0C154.96 1.07014 149.515 8.79681 146.584 12.9566C146.334 13.3108 146.103 13.6393 145.892 13.9355ZM0 5.3544e-05L115.398 8.82224e-05C120.888 9.64939e-05 129.394 13.3757 129.737 13.9186C129.56 13.6616 126.869 10.5302 98.9552 6.38715C30.4937 -3.77414 57.101 12.7742 57.101 12.7742C57.101 12.7742 47.8333 8.05666 30.4937 4.06457C13.1542 0.072474 0 5.3544e-05 0 5.3544e-05ZM129.737 13.9186C129.74 13.9227 129.742 13.9261 129.744 13.9287C129.747 13.9333 129.748 13.9355 129.748 13.9355L129.737 13.9186ZM171.602 8.82224e-05L287 5.3544e-05C287 5.3544e-05 273.846 0.072474 256.506 4.06457C239.167 8.05666 229.899 12.7742 229.899 12.7742C229.899 12.7742 256.506 -3.77414 188.045 6.38715C160.131 10.5302 157.44 13.6616 157.263 13.9186C157.606 13.3757 166.112 9.64939e-05 171.602 8.82224e-05Z" fill="url(#paint0_linear_972_308)"/>
<defs>
<linearGradient id="paint0_linear_972_308" x1="-12.3207" y1="-15.75" x2="326.508" y2="53.1135" gradientUnits="userSpaceOnUse">
<stop stop-color="#E8B77C"/>
<stop offset="0.51" stop-color="#FDD969"/>
<stop offset="1" stop-color="#B27122"/>
</linearGradient>
</defs>
</svg>
