<svg width="24" height="24" viewBox="0 0 24 24" fill="none" xmlns="http://www.w3.org/2000/svg">
<path d="M5.57208 9.50112C6.08679 9.50112 6.50405 9.08386 6.50405 8.56915C6.50405 8.05446 6.08679 7.63721 5.57208 7.63721C5.05739 7.63721 4.64014 8.05446 4.64014 8.56915C4.64014 9.08386 5.05739 9.50112 5.57208 9.50112Z" fill="currentColor"/>
<path d="M3.03497 12.3659C3.54968 12.3659 3.96694 11.9486 3.96694 11.4339C3.96694 10.9192 3.54968 10.502 3.03497 10.502C2.52028 10.502 2.10303 10.9192 2.10303 11.4339C2.10303 11.9486 2.52028 12.3659 3.03497 12.3659Z" fill="currentColor"/>
<path fill-rule="evenodd" clip-rule="evenodd" d="M19.1531 2.4563C18.0982 1.90992 16.8001 2.32212 16.2538 3.37698L13.8674 7.98424C13.8546 8.00893 13.8435 8.03409 13.8342 8.05953C12.6653 8.01945 11.5074 8.53582 10.7264 9.4498C9.8063 10.5266 8.67429 11.7018 7.70697 12.3018C6.32786 13.1574 5.18774 13.4657 4.47971 13.5751C4.06562 13.6392 3.72953 13.9058 3.56581 14.2515C3.39479 14.6126 3.40768 15.0858 3.74002 15.452C4.46249 16.2482 5.87107 17.5522 8.45466 19.1954C10.2441 20.3335 11.8485 20.9629 12.7119 21.2546C13.3736 21.4781 14.0808 21.2225 14.4605 20.6538C14.9405 19.9349 15.7836 18.579 16.5075 16.9293C17.043 15.7087 17.5043 14.4508 17.9459 13.195C18.3183 12.1357 18.1508 11.0182 17.5845 10.135L20.0715 5.35992C20.6212 4.30462 20.2096 3.00354 19.1531 2.4563ZM16.6466 9.15059L18.9304 4.76559C19.1513 4.34151 18.9859 3.81865 18.5613 3.59874C18.1374 3.37918 17.6158 3.54483 17.3962 3.96874L15.1292 8.34547C15.2051 8.37769 15.2804 8.41267 15.3551 8.45053L16.1835 8.87053C16.3466 8.95324 16.5012 9.04704 16.6466 9.15059ZM16.7321 12.7683C16.6404 13.029 16.5438 13.3002 16.4436 13.5763L11.2226 10.8364C11.3907 10.649 11.552 10.4642 11.7046 10.2856C12.4817 9.37614 13.7572 9.08287 14.7733 9.59805L15.6016 10.0181C16.6223 10.5355 17.1048 11.7081 16.7321 12.7683ZM8.3852 13.3951C9.02004 13.0013 9.68249 12.4258 10.3041 11.8073L10.3124 11.8118L15.9904 14.7914C15.7719 15.3593 15.5475 15.915 15.3293 16.4123C14.6458 17.9701 13.8456 19.2578 13.3905 19.9394C13.3257 20.0365 13.2203 20.0683 13.1236 20.0356C12.7439 19.9074 12.2014 19.7056 11.5546 19.4129C11.8548 19.0964 12.2902 18.5791 12.7074 17.8682C12.8877 17.561 12.7835 17.1711 12.4747 16.9972C12.1659 16.8234 11.7694 16.9315 11.5891 17.2387C11.2537 17.81 10.8441 18.3728 10.3418 18.8118C9.95874 18.6051 9.5572 18.3719 9.14511 18.1098C8.81005 17.8967 8.49627 17.69 8.20256 17.4902C8.35539 17.3874 8.52297 17.2614 8.70287 17.1071C8.97345 16.8751 9.00032 16.474 8.76289 16.2112C8.52547 15.9485 8.11368 15.9236 7.84313 16.1556C7.4449 16.4971 7.1668 16.6271 7.05469 16.6709C6.03031 15.9012 5.34398 15.2693 4.89981 14.8085C5.76035 14.6485 6.97593 14.2694 8.3852 13.3951Z" fill="currentColor"/>
</svg>
