<svg width="14" height="14" viewBox="0 0 14 14" fill="none" xmlns="http://www.w3.org/2000/svg">
<path d="M6.99992 0.333252C3.31325 0.333252 0.333252 3.31325 0.333252 6.99992C0.333252 10.6866 3.31325 13.6666 6.99992 13.6666C10.6866 13.6666 13.6666 10.6866 13.6666 6.99992C13.6666 3.31325 10.6866 0.333252 6.99992 0.333252ZM6.99992 12.3333C4.05992 12.3333 1.66659 9.93992 1.66659 6.99992C1.66659 4.05992 4.05992 1.66659 6.99992 1.66659C9.93992 1.66659 12.3333 4.05992 12.3333 6.99992C12.3333 9.93992 9.93992 12.3333 6.99992 12.3333ZM9.39325 3.66659L6.99992 6.05992L4.60659 3.66659L3.66659 4.60659L6.05992 6.99992L3.66659 9.39325L4.60659 10.3333L6.99992 7.93992L9.39325 10.3333L10.3333 9.39325L7.93992 6.99992L10.3333 4.60659L9.39325 3.66659Z" fill="currentColor"/>
</svg>
