<svg width="24" height="24" viewBox="0 0 24 24" fill="none" xmlns="http://www.w3.org/2000/svg">
<g clip-path="url(#clip0_1263_42)">
<path d="M11.8912 12.9788L16.3912 16.3538C16.7227 16.6024 17.1926 16.5352 17.4412 16.2037C17.6899 15.8722 17.6228 15.4024 17.2913 15.1537L13.125 12V5.625C13.125 5.21062 12.7894 4.875 12.375 4.875C11.9606 4.875 11.625 5.21062 11.625 5.625V12.375C11.625 12.624 11.7292 12.8483 11.8912 12.9788Z" fill="currentColor"/>
<path d="M12.7492 0.75C7.25953 0.75 2.57165 4.71225 1.65665 10.125L1.37165 9.70125C1.13953 9.35738 0.673028 9.26662 0.329153 9.49875C-0.014722 9.73087 -0.105472 10.1974 0.126653 10.5413L1.62665 12.7913C1.75003 12.9788 1.95103 13.1014 2.17415 13.125H2.24915C2.4479 13.1242 2.63803 13.0447 2.7779 12.9037L4.6529 11.0287C4.94578 10.7359 4.94578 10.2604 4.6529 9.9675C4.36003 9.67462 3.88453 9.67462 3.59165 9.9675L3.12665 10.4362C3.99028 5.121 8.99915 1.51275 14.314 2.37637C19.6289 3.24 23.2379 8.2485 22.3743 13.5637C21.6074 18.2835 17.5308 21.7508 12.7492 21.75C9.7334 21.8047 6.88115 20.382 5.1104 17.94C4.87003 17.6025 4.40165 17.5234 4.06415 17.7637C3.72665 18.0041 3.64753 18.4725 3.8879 18.81C5.9384 21.6495 9.2474 23.3074 12.7492 23.25C18.9625 23.25 23.9992 18.2134 23.9992 12C23.9992 5.78662 18.9625 0.75 12.7492 0.75Z" fill="currentColor"/>
</g>
<defs>
<clipPath id="clip0_1263_42">
<rect width="24" height="24" fill="white"/>
</clipPath>
</defs>
</svg>
