<svg width="24" height="24" viewBox="0 0 24 24" fill="none" xmlns="http://www.w3.org/2000/svg">
<path d="M14.9988 19C14.8672 19.0008 14.7368 18.9756 14.6149 18.9258C14.4931 18.876 14.3823 18.8027 14.2888 18.71L8.28884 12.71C8.10259 12.5227 7.99805 12.2692 7.99805 12.005C7.99805 11.7408 8.10259 11.4874 8.28884 11.3L14.2888 5.30003C14.4801 5.1362 14.7262 5.05059 14.9779 5.06032C15.2296 5.07004 15.4683 5.17437 15.6464 5.35246C15.8245 5.53056 15.9288 5.7693 15.9386 6.02097C15.9483 6.27265 15.8627 6.51873 15.6988 6.71003L10.4088 12L15.6988 17.29C15.8393 17.4293 15.9352 17.6071 15.9746 17.8009C16.014 17.9947 15.995 18.1958 15.9201 18.3789C15.8452 18.5619 15.7177 18.7186 15.5537 18.8292C15.3897 18.9397 15.1966 18.9992 14.9988 19Z" fill="currentColor"/>
</svg>
