<svg width="24" height="24" viewBox="0 0 24 24" fill="none" xmlns="http://www.w3.org/2000/svg">
<g clip-path="url(#clip0_211_16)">
<path d="M9.94749 18.2922L7.11946 21.1202C5.94701 22.2927 4.04833 22.2927 2.87687 21.1205C1.70517 19.9488 1.70517 18.0499 2.87663 16.8785L8.53368 11.2214C9.70514 10.0499 11.604 10.0499 12.7755 11.2214C13.166 11.6119 13.7992 11.6119 14.1897 11.2214C14.5802 10.8309 14.5802 10.1977 14.1897 9.80718C12.2372 7.85464 9.072 7.85464 7.11946 9.80718L1.46245 15.4642C-0.490089 17.4167 -0.490089 20.5819 1.46245 22.5344C3.41476 24.488 6.58016 24.488 8.53373 22.5344L11.3618 19.7064C11.7523 19.3159 11.7523 18.6827 11.3618 18.2922C10.9712 17.9017 10.338 17.9017 9.94749 18.2922Z" fill="currentColor"/>
<path d="M22.5334 1.46441C20.5809 -0.488136 17.4147 -0.488136 15.4621 1.46441L12.0691 4.85743C11.6786 5.24794 11.6786 5.88114 12.0691 6.27165C12.4596 6.66217 13.0928 6.66217 13.4833 6.27165L16.8764 2.87863C18.0478 1.70713 19.9477 1.70713 21.1192 2.87863C22.2906 4.05009 22.2906 5.94896 21.1192 7.12042L14.8971 13.3425C13.7256 14.514 11.8268 14.514 10.6554 13.3425C10.2648 12.952 9.63165 12.952 9.24113 13.3425C8.85061 13.733 8.85061 14.3662 9.24113 14.7567C11.1937 16.7093 14.3588 16.7093 16.3114 14.7567L22.5334 8.5347C24.486 6.58216 24.486 3.41695 22.5334 1.46441Z" fill="currentColor"/>
</g>
<defs>
<clipPath id="clip0_211_16">
<rect width="24" height="24" fill="white" transform="translate(-0.00195312 -0.00195312)"/>
</clipPath>
</defs>
</svg>
