<svg width="24" height="24" viewBox="0 0 24 24" fill="none" xmlns="http://www.w3.org/2000/svg">
<g clip-path="url(#clip0_212_78)">
<path d="M7.32016 9C7.52641 9 7.69516 8.83125 7.69516 8.625C7.69516 8.41875 7.52641 8.25 7.32016 8.25H7.31641C7.11016 8.25 6.94141 8.41875 6.94141 8.625C6.94141 8.83125 7.11391 9 7.32016 9Z" fill="currentColor"/>
<path d="M16.6952 9C16.9014 9 17.0702 8.83125 17.0702 8.625C17.0702 8.41875 16.9014 8.25 16.6952 8.25H16.6914C16.4852 8.25 16.3164 8.41875 16.3164 8.625C16.3164 8.83125 16.4889 9 16.6952 9Z" fill="currentColor"/>
<path d="M7.125 12.75H16.875C17.0813 12.75 17.25 12.5813 17.25 12.375C17.25 12.1687 17.0813 12 16.875 12H7.125C6.91875 12 6.75 12.1687 6.75 12.375C6.75 12.5813 6.91875 12.75 7.125 12.75Z" fill="currentColor"/>
<path d="M7.125 15H16.875C17.0813 15 17.25 14.8313 17.25 14.625C17.25 14.4187 17.0813 14.25 16.875 14.25H7.125C6.91875 14.25 6.75 14.4187 6.75 14.625C6.75 14.8313 6.91875 15 7.125 15Z" fill="currentColor"/>
<path d="M7.125 17.25H16.875C17.0813 17.25 17.25 17.0813 17.25 16.875C17.25 16.6687 17.0813 16.5 16.875 16.5H7.125C6.91875 16.5 6.75 16.6687 6.75 16.875C6.75 17.0813 6.91875 17.25 7.125 17.25Z" fill="currentColor"/>
<path d="M9.66409 10.2042C9.70159 10.3767 9.85534 10.5005 10.0316 10.5005H13.9691C14.1453 10.5005 14.2991 10.3767 14.3366 10.2042L14.9928 7.20422C15.0228 7.06547 14.9741 6.92297 14.8616 6.83297C14.7491 6.74297 14.5991 6.72422 14.4716 6.78422L13.1253 7.39922L12.3191 6.16922C12.1803 5.95922 11.8316 5.95922 11.6928 6.16922L10.8866 7.39922L9.54034 6.78422C9.41284 6.72422 9.25909 6.74297 9.15034 6.83297C9.04159 6.92297 8.98909 7.06547 9.01909 7.20422L9.66409 10.2042ZM10.8603 8.21672C11.0291 8.29547 11.2278 8.23547 11.3291 8.08172L12.0003 7.05797L12.6716 8.08172C12.7728 8.23547 12.9716 8.29547 13.1403 8.21672L14.0966 7.77797L13.6691 9.75047H10.3353L9.90409 7.77797L10.8603 8.21672Z" fill="currentColor"/>
<path d="M22.5 20.25H21.8925C21.7894 19.9579 21.7605 19.5086 21.375 19.5H20.25V10.4587C20.25 10.1437 20.1263 9.8475 19.905 9.62625L19.2075 8.92875C19.0425 8.76375 19.0425 8.49 19.2075 8.325L19.905 7.6275C20.1263 7.40625 20.25 7.11 20.25 6.795V4.5H21.375C21.7605 4.49137 21.7894 4.0425 21.8925 3.75H22.5C23.3288 3.75 24 3.07875 24 2.25C24 1.42125 23.3288 0.75 22.5 0.75H21.8925C21.7898 0.455625 21.7605 0.009 21.375 0H18.375H16.125H7.5H5.25H2.625C2.23725 0.009375 2.21475 0.45525 2.1075 0.75H1.5C0.67125 0.75 0 1.42125 0 2.25C0 3.07875 0.67125 3.75 1.5 3.75H2.1075C2.21437 4.04475 2.23725 4.491 2.625 4.5H3.75V6.79125C3.75 7.10625 3.87375 7.4025 4.095 7.62375L4.7925 8.32125C4.87125 8.40375 4.91625 8.50875 4.91625 8.625C4.91625 8.74125 4.87125 8.84625 4.7925 8.92875L4.095 9.62625C3.87375 9.8475 3.75 10.1437 3.75 10.4587V19.5H2.625C2.23725 19.509 2.21475 19.9552 2.1075 20.25H1.5C0.67125 20.25 0 20.9212 0 21.75C0 22.5788 0.67125 23.25 1.5 23.25H2.1075C2.21437 23.5444 2.23725 23.991 2.625 24H21.375C21.7605 23.9914 21.7894 23.5425 21.8925 23.25H22.5C23.3288 23.25 24 22.5788 24 21.75C24 20.9212 23.3288 20.25 22.5 20.25ZM22.5 1.5C22.9125 1.5 23.25 1.8375 23.25 2.25C23.25 2.6625 22.9125 3 22.5 3H22.0538C22.1205 2.50237 22.1201 1.99763 22.0538 1.5H22.5ZM18 0.75V1.5C18 1.9125 17.6625 2.25 17.25 2.25C16.8375 2.25 16.5 1.9125 16.5 1.5V0.75H18ZM7.125 0.75V1.5C7.125 1.9125 6.7875 2.25 6.375 2.25C5.9625 2.25 5.625 1.9125 5.625 1.5V0.75H7.125ZM1.5 3C1.0875 3 0.75 2.6625 0.75 2.25C0.75 1.8375 1.0875 1.5 1.5 1.5H1.94625C1.92563 1.75125 1.89225 1.99875 1.89375 2.25C1.89263 2.5035 1.91738 2.75062 1.94625 3H1.5ZM2.76 3.2925C2.5695 2.457 2.61675 1.55888 2.8875 0.75H4.875V1.5C4.875 2.32875 5.54625 3 6.375 3C7.20375 3 7.875 2.32875 7.875 1.5V0.75H15.75V1.5C15.75 2.32875 16.4212 3 17.25 3C18.0788 3 18.75 2.32875 18.75 1.5V0.75H21.1125C21.1575 0.8925 21.1988 1.0425 21.2363 1.2075C21.3919 1.88888 21.3919 2.60925 21.2363 3.2925C21.1988 3.4575 21.1575 3.6075 21.1125 3.75H19.875H4.125H2.8875C2.8425 3.6075 2.80125 3.4575 2.76 3.2925ZM4.5 10.4587C4.5 10.3462 4.545 10.2375 4.62375 10.155L5.32125 9.4575C5.5425 9.23625 5.66625 8.94 5.66625 8.625C5.66625 8.31 5.5425 8.01375 5.32125 7.7925L4.62375 7.095C4.54125 7.01625 4.5 6.9075 4.5 6.79125V4.5H19.5V6.79125C19.5 6.90375 19.455 7.0125 19.3762 7.095L18.6788 7.7925C18.2213 8.25 18.2213 9 18.6788 9.4575L19.3762 10.155C19.4587 10.2375 19.5 10.3425 19.5 10.4587V19.5H17.25H6.75H4.5V10.4587ZM7.3425 20.25H16.6575C15.1222 21.7035 8.87775 21.7035 7.3425 20.25ZM1.5 22.5C1.0875 22.5 0.75 22.1625 0.75 21.75C0.75 21.3375 1.0875 21 1.5 21H1.94625C1.88025 21.4942 1.87913 21.999 1.94625 22.4925H1.5V22.5ZM2.8875 23.25C2.56462 22.2967 2.56012 21.2036 2.8875 20.2537H4.125H6.4425C6.46125 20.31 6.49125 20.3625 6.5175 20.415C6.52125 20.4187 6.52125 20.4225 6.52125 20.4263C8.05387 22.6905 15.9368 22.6916 17.4713 20.4263C17.475 20.4225 17.475 20.4187 17.475 20.415C17.505 20.3625 17.5312 20.3062 17.55 20.2537H19.875H21.1125C21.4316 21.2104 21.4312 22.296 21.1125 23.25H2.8875ZM22.5 22.5H22.0538C22.1201 22.002 22.1201 21.4984 22.0538 21H22.5C22.9125 21 23.25 21.3375 23.25 21.75C23.25 22.1625 22.9125 22.5 22.5 22.5Z" fill="currentColor"/>
</g>
<defs>
<clipPath id="clip0_212_78">
<rect width="24" height="24" fill="white"/>
</clipPath>
</defs>
</svg>
