<svg width="24" height="24" viewBox="0 0 24 24" fill="none" xmlns="http://www.w3.org/2000/svg">
<g clip-path="url(#clip0_2015_12)">
<path d="M12 0C5.36761 0 0 5.367 0 12C0 18.6323 5.367 24 12 24C18.6324 24 24 18.633 24 12C24 5.36761 18.633 0 12 0ZM12 22.3256C6.30647 22.3256 1.67442 17.6936 1.67442 12C1.67442 6.30642 6.30647 1.67442 12 1.67442C17.6936 1.67442 22.3256 6.30642 22.3256 12C22.3256 17.6936 17.6936 22.3256 12 22.3256Z" fill="currentColor"/>
<path d="M11.6453 15.1846C10.9819 15.1846 10.4448 15.7374 10.4448 16.4008C10.4448 17.0485 10.9661 17.6171 11.6453 17.6171C12.3245 17.6171 12.8615 17.0485 12.8615 16.4008C12.8615 15.7374 12.3087 15.1846 11.6453 15.1846Z" fill="currentColor"/>
<path d="M11.8505 5.97656C9.71808 5.97656 8.73877 7.24027 8.73877 8.0932C8.73877 8.70923 9.26002 8.99358 9.68649 8.99358C10.5395 8.99358 10.192 7.77727 11.8031 7.77727C12.5929 7.77727 13.2248 8.1248 13.2248 8.85141C13.2248 9.70434 12.3402 10.194 11.8189 10.6363C11.3608 11.0311 10.7606 11.6788 10.7606 13.0372C10.7606 13.8585 10.9818 14.0955 11.6294 14.0955C12.4033 14.0955 12.5613 13.748 12.5613 13.4478C12.5613 12.6265 12.5771 12.1526 13.4459 11.4734C13.8723 11.1417 15.2149 10.0676 15.2149 8.58281C15.2149 7.09805 13.8723 5.97656 11.8505 5.97656Z" fill="currentColor"/>
</g>
<defs>
<clipPath id="clip0_2015_12">
<rect width="24" height="24" fill="white"/>
</clipPath>
</defs>
</svg>
