<svg width="24" height="24" viewBox="0 0 24 24" fill="none" xmlns="http://www.w3.org/2000/svg">
<g clip-path="url(#clip0_367_326)">
<path d="M7.12267 13.4322C7.45561 13.0503 7.1844 12.4539 6.6777 12.4539H5.16065C5.15077 12.3038 5.14525 12.1526 5.14525 12C5.14525 8.22025 8.22027 5.14522 12 5.14522C13.8164 5.14522 15.4698 5.8556 16.6976 7.01282L18.8368 4.51025C16.9642 2.7972 14.5543 1.85889 12 1.85889C9.29122 1.85889 6.74458 2.91377 4.82916 4.82914C2.9138 6.74456 1.85891 9.2912 1.85891 12C1.85891 12.1519 1.8627 12.3031 1.86931 12.4539H0.59149C0.0847934 12.4539 -0.186469 13.0502 0.146521 13.4322L3.0291 16.7386L3.63457 17.4331L5.80841 14.9396L7.12267 13.4322Z" fill="currentColor"/>
<path d="M23.8535 11.5029L21.7035 9.03675L20.3655 7.50195L18.4551 9.69327L16.8774 11.5029C16.5445 11.8849 16.8157 12.4812 17.3224 12.4812H18.8376C18.5898 16.0372 15.6179 18.8546 12 18.8546C10.4207 18.8546 8.96468 18.3175 7.80437 17.4167L5.66504 19.9195C7.45723 21.3587 9.66836 22.141 12.0001 22.141C14.7089 22.141 17.2555 21.0861 19.1709 19.1707C20.9724 17.3692 22.0124 15.0092 22.1297 12.4812H23.4086C23.9152 12.4812 24.1865 11.8849 23.8535 11.5029Z" fill="currentColor"/>
</g>
<defs>
<clipPath id="clip0_367_326">
<rect width="24" height="24" fill="white"/>
</clipPath>
</defs>
</svg>
